<svg width="24" height="24" viewBox="0 0 24 24" fill="none" xmlns="http://www.w3.org/2000/svg">
<path d="M19.7539 8.07324C19.9754 7.85165 20.3488 7.85171 20.5703 8.08496L23.8232 11.3389C24.1963 11.7004 23.9397 12.3301 23.415 12.3301H21.3281C21.3281 17.4849 17.1537 21.6602 12 21.6602C10.7874 21.6601 9.62156 21.4266 8.56055 20.9951C7.77938 20.6803 7.56957 19.6778 8.16406 19.083C8.47888 18.7681 8.95719 18.6395 9.37695 18.8145C10.1814 19.1525 11.079 19.3271 12 19.3271C15.8594 19.3271 18.996 16.1903 18.9961 12.3301H16.9092C16.3845 12.3301 16.1279 11.7003 16.501 11.3271L19.7539 8.07324ZM12 3C13.2126 3 14.3784 3.23356 15.4395 3.66504C16.2207 3.97992 16.4306 4.98236 15.8359 5.57715C15.5211 5.89204 15.0428 6.02064 14.623 5.8457C13.8186 5.5076 12.921 5.33203 12 5.33203C8.14052 5.33203 5.00391 8.46979 5.00391 12.3301H7.09082C7.61552 12.3301 7.8722 12.9598 7.51074 13.3213L4.25781 16.5752C4.02461 16.8084 3.66289 16.8084 3.42969 16.5752L0.176758 13.3213C-0.196364 12.9598 0.0602578 12.3301 0.584961 12.3301H2.67188C2.67188 7.17525 6.84625 3 12 3Z" fill="#1414D2"/>
</svg>
